<svg width="22" height="15" viewBox="0 0 22 15" fill="none" xmlns="http://www.w3.org/2000/svg">
<g clip-path="url(#clip0_3502_208)">
<g clip-path="url(#clip1_3502_208)">
<path d="M21.5401 2.34243C21.2866 1.41992 20.5422 0.694967 19.595 0.448024C17.8801 1.3411e-07 11 0 11 0C11 0 4.12003 1.3411e-07 2.40501 0.448024C1.45786 0.694967 0.713535 1.41992 0.459995 2.34243C1.37694e-07 4.01281 0 7.5 0 7.5C0 7.5 1.37694e-07 10.9872 0.459995 12.6576C0.713535 13.5801 1.45786 14.305 2.40501 14.5519C4.12003 15 11 15 11 15C11 15 17.8801 15 19.595 14.5519C20.5422 14.305 21.2866 13.5801 21.5401 12.6576C22.0001 10.9872 22.0001 7.5 22.0001 7.5C22.0001 7.5 21.9982 4.01281 21.5401 2.34243Z" fill="#FF0000"/>
<path d="M8.79785 10.7141L14.5134 7.5003L8.79785 4.2865V10.7141Z" fill="white"/>
</g>
</g>
<defs>
<clipPath id="clip0_3502_208">
<rect width="22" height="15" fill="white"/>
</clipPath>
<clipPath id="clip1_3502_208">
<rect width="22" height="15" fill="white"/>
</clipPath>
</defs>
</svg>
